<?xml version="1.0" encoding="UTF-8"?>
<svg width="102.01mm" height="114.6mm" version="1.1" viewBox="0 0 361.4356 406.06225" xmlns="http://www.w3.org/2000/svg">
 <g transform="translate(-1224.1 -567.39)">
  <path transform="translate(1224.1 567.39)" d="m70.393 278.68l-61.006 25.477-9.3867 4.6914v97.881l31.51 0.66992 3.3516-50.951 30.84-36.201 4.6914-41.566zm98.553 86.482l-77.77 41.566h207.83l-130.06-41.566z" fill="#e3423b" fill-rule="evenodd"/>
  <path d="m1255.6 973.45 4.0225-52.963 32.18-37.543 0.6705-35.532 10.056-34.862 24.135 8.045 17.431-6.7042 13.408-17.431 12.068-36.202 7.3746-23.464 15.42-37.543 29.498-4.6929 72.405 24.135 56.985 30.169 12.738 18.772-8.7154 22.794-14.749 20.783-21.453 10.727-13.408 26.146-22.794 34.862-12.738 21.453-26.146 35.532-54.304-6.7041-27.487 16.09-46.929 25.476z" fill="#eca6ae" fill-rule="evenodd"/>
  <path d="m1398.3 830.47 20.013 2.3092 16.549 7.3125 28.673 12.508 11.354 10.391-11.354 2.6941h-8.4671l-16.549-5.3881-25.016-12.508z" fill="#fff" fill-rule="evenodd"/>
  <path transform="translate(1224.1 567.39)" d="m180.97 127.66l-17.689 7.0762-11.158 32.93-1.6328 17.145 10.613 26.398 11.432 12.789 20.682 6.2598 27.486-5.4414 25.582-7.0762 16.328 5.1699 10.613 32.385 11.703 1.0898 11.975-1.9062 2.7207-1.6328 19.322-12.518 13.607-20.139 6.2578-22.861-18.504-21.498-99.332-42.998-40.006-5.1719zm13.336 13.336l128.45 50.346 2.9922 22.043-11.975 19.051-12.789 9.7969-12.52-0.27148-13.879-8.1641-4.8984-33.201h-4.8984l-20.955 8.1641-25.854 2.9922-27.486-4.3535-20.139-16.328-2.9941-14.695 0.27343-5.9883 8.9805-26.125 17.689-3.2656z" fill="#4d4d4d" fill-rule="evenodd"/>
  <path d="m1494 768.48 18.314 0.50176 7.2754 3.7631-6.5228 11.54-19.067-7.2754z" fill="#fff" fill-rule="evenodd"/>
  <path d="m1324.8 850.99-3.2657-29.664 15.512-5.1707 13.063-8.9807 13.879-25.854 12.246-47.353 10.886-32.113 17.689-6.8036 25.854 1.905 64.226 22.044 46.808 23.676 14.696 13.335 5.715 13.879-8.9807 24.765-12.246 13.879-20.955 13.063-6.5314 14.424-26.398 38.372-4.3542 16.056 17.689-17.145 28.575-30.48 13.063-22.588 8.1643-20.955 16.873-37.284 12.518-45.176 0.8165-29.391-4.3543-29.664-17.689-30.48-38.916-36.467-48.714-17.689-59.599-2.7214-34.834 5.9871-40.549 22.316-29.936 40.277-16.328 42.726-11.43 53.612 3.81 47.081 12.518 23.949 16.873 12.519 4.3542 15.512z" fill="#ee3a38" fill-rule="evenodd"/>
  <path d="m1279.1 729.34 5.9871-27.759 25.037-1.3607 35.651 0.54428 19.05 2.7214 20.955 4.6264-7.0757 27.214-20.139-7.0757-24.765-1.905-35.651-0.81643-16.056 2.1771z" fill="#b3b3b3" fill-rule="evenodd" stroke="#000" stroke-width="1px"/>
  <path d="m1408.5 739.63 9.2824 5.7702 10.286 5.0175 17.31 5.2684 7.0246-11.039-23.081-7.7772z" fill="#fff" fill-rule="evenodd"/>
  <path d="m1415.4 567.4v2e-3c-20.467 0.13816-31.688 2.2546-42.32 7.2324-3.9699 1.8586-7.651 3.3789-8.1797 3.3789-1.4071 0-16.315 7.9588-18.486 9.8691-1.0203 0.8976-1.9202 1.4251-2 1.1738-0.5345-1.6844-18.645 12.92-18.645 15.035 0 0.5077-0.3476 0.92187-0.7734 0.92187-0.7397 0-9.5049 11.634-15.711 20.854-5.0601 9.7236-6.1509 9.8509-11.064 19.484-0.389 1.5501-1.7558 4.9923-3.0371 7.6484-1.2813 2.656-2.6357 6.1084-3.0098 7.6719-0.6976 2.9154-2.3379 4.5254-2.3379 4.5254-3.1901 7.9351-5.7322 17.125-7.2442 23.542-2.7491 8.9014-2.4856 6.3775-5.746 17.95l-1.4492 7.7324c0.3942-0.13312 0.3264 0.91608 0.02 3.8184-0.2749 2.5997-0.8494 5.2939-1.2774 5.9863-0.4279 0.6924-0.6525 2.7264-0.498 4.5195 0.145 1.6836 0.054 2.585-0.5645 3.2344l-0.2226 3.5527c0.1555 0.45601 0.2478 1.1556 0.2148 1.9805 1.2769 10.979 1.3833 17.475 2.3539 27.538 0 2.6164 2.2471 10.938 3.0445 14.964l1.4102 3.4316c2.1881 6.4724 3.6388 5.9442 5.7267 11.272l8.4413 12.72c5.9626 7.1332 6.2564 8.3572 3.9003 16.223-1.1287 3.768-2.6041 9.5516-3.2792 12.852-0.6752 3.3-1.5588 6.45-1.9649 7s-1.0608 3.5938-1.4531 6.7636c-0.8124 6.5643-1.7845 7.6743-4.541 5.1797-2.5232-2.2835-2.4481-3.0227 0.623-6.0937 1.4083-1.4083 2.3595-2.7636 2.1133-3.0098s-3.7609 1.125-7.8106 3.0469c-4.0496 1.922-13.888 6.2421-21.863 9.5996-27.471 11.565-33.095 14.23-32.68 15.478 0.1897 0.57 1.2073 1.1728 2.2617 1.3399 1.5105 0.2393 1.6179 0.098 0.502-0.6621-1.0625-0.7253-0.08-1.3634 3.9316-2.5547 2.9413-0.8735 6.195-1.5879 7.2324-1.5879 2.6936 0 13.683 11.41 14.389 14.939 0.4519 2.2595 0.1126 3.2005-1.5274 4.2246-2.6451 1.6519-2.7975 3.2742-0.1757 1.8711 3.6373-1.9467 4.6426-1.1291 6.8925 5.6094 1.2202 3.6544 2.0951 6.692 1.9454 6.75-0.1498 0.058-1.2778 0.668-2.5079 1.3555-1.23 0.6875-2.4517 1.25-2.7148 1.25-0.8938 0-2.5488-3.8589-2.5488-5.9434 0-1.1416-0.9-2.8453-2-3.7871-1.1-0.9419-2-2.2408-2-2.8848 0-0.6439-0.6333-1.4123-1.4063-1.7089-0.7729-0.2966-2.8223-2.5993-4.5547-5.1172-2.869-4.17-2.988-4.6397-1.3437-5.2676 2.2763-0.869 6.0187-4.2891 4.6933-4.2891-0.5437 0-1.5294 0.5392-2.1894 1.1992s-1.1992 0.8521-1.1992 0.4278-0.708-0.063-1.5723 0.8008c-1.9756 1.9751-3.8272 1.9991-5.4277 0.07-0.6847-0.825-1.7095-1.5-2.2774-1.5s-0.2153 0.9025 0.7832 2.0058c0.9986 1.1033 1.6301 2.1495 1.4043 2.3242-0.2258 0.1757-1.9851 1.3875-3.9101 2.6954-1.925 1.3078-3.725 2.6691-4 3.0234-0.275 0.3544-1.7375 0.9462-3.25 1.3164l-2.4414 0.5977v22.053c0.62-1.9888 2.2496-2.9773 5.5371-3.6348 0.9965-0.1993 1.7439-0.2716 2.2441-0.209 1.5008 0.188 0.7695 1.587-2.1933 4.3907-1.7072 1.6153-3.4125 3.7453-3.7891 4.7324-0.6587 1.7265-1.3947 1.5129-1.7988 0v8.0019c0.088-0.5975 0.2262-1.1523 0.4355-1.6132 0.4016-0.8844 0.6579-1.3562 0.9063-1.2969 0.3193 0.076 0.6268 1.0291 1.2128 3.1113 0.6193 2.2 1.1279 4.7874 1.1309 5.75 0 0.9625-0.6491 1.75-1.4492 1.75-1.0953 0-1.9546-2.18-2.2363-4.5683v44.01h0.6484l-0.059-2.1914c-0.2339-8.6038-0.041-18.442 0.3711-18.854 0.015-0.015 0.034-0.021 0.055-0.016 0.3095 0.075 1.2102 2.3693 2.0859 5.3457 2.7641 9.3955 5.3893 14.433 7.3555 14.109 1.6862-0.2774 3.53 0.5218 4.0664 1.6054h5.5684c0.182-1.179 2.9204-2.1546 5.7187-2.0312 0.4672 0.021 0.9362 0.072 1.3945 0.1582 2.5601 0.4803 3.72 1.1679 3.3536 1.873h1.9433c-0.097-5.6068 0.5428-19.202 1.2422-24.941 0.5361-4.4 1.1956-9.8 1.4648-12 1.0427-8.5187 1.8612-10.948 4.4161-13.098 1.4527-1.2225 5.2118-6.0076 8.3535-10.633 6.589-9.7006 12.432-16.77 13.859-16.77 2.5961 0-1.3675 16.415-6.1661 25.537-1.6391 3.1161-2.9804 6.38-2.9804 7.252 0 2.5927 5.8962-3.6594 8.289-8.7891 1.1546-2.475 2.4486-4.7419 2.875-5.039 1.0769-0.7504 3.8134-14.194 4.3672-21.451 0.8094-10.606 1.648-23.936 1.668-26.51 0.026-3.3322 1.722-19.723 2.4316-23.5 0.31-1.65 0.6821-4.125 0.8262-5.5 0.6473-6.178 2.8547-17.887 3.5996-19.092 0.2495-0.40362 0.556-0.63843 1.0449-0.68945 0.8149-0.085 2.1395 0.34072 4.5645 1.3457 4.4593 1.8481 4.8387 2.2895 5.5469 6.459 1.33 7.8307 7.3786 20.75 14.449 30.865 2.4563 3.514 5.1578 8.239 6.0039 10.5 2.9361 7.846 6.7088 17.117 7.3711 18.111 0.3662 0.55 1.9158 4.825 3.4433 9.5 6.3239 19.354 18.962 39.87 26.48 42.984 1.6709 0.6922 3.0391 1.5985 3.0391 2.0137 0 0.4151-3.2625 2.4585-7.25 4.541-6.9294 3.6189-17.228 9.4174-35.75 20.131-4.675 2.7041-11.425 6.2024-15 7.7735-0.8805 0.387-1.661 0.7074-2.4219 0.998h17.537c0.3997-0.3161 1.8762-0.9397 3.6348-1.5176 2.0625-0.6779 7.014-2.7383 11.004-4.5781 3.9898-1.8398 7.673-3.3457 8.1836-3.3457 0.9207 0 2.5595 3.8526 1.9043 4.4766-0.1878 0.1787-3.8392 1.494-8.1133 2.9238-2.528 0.8455-5.5534 1.5558-8.336 2.041h21.727c0.1635-0.3334 0.4834-0.6962 0.8613-0.9297 1.0634-0.6572 22.77-3.4924 24.447-3.1933 0.5633 0.1004 1.1784-0.8309 1.3672-2.0684 0.2156-1.4132 0.6057-2.1283 1.3672-2.084 0.9791 0.057 2.5732 1.3686 5.2051 4.0606 2.7471 2.8099 3.5408 3.8095 2.9843 4.2148h4.2539c-0.8821-0.4665-1.8041-1.3535-2.58-2.623l-2.0274-3.3184 2.2129-0.3476c0.1469-0.023 0.2983-0.031 0.4551-0.024 2.3516 0.1024 5.6525 3.413 5.0332 5.2735-0.1535 0.461-0.3815 0.8047-0.6641 1.039h24.248c-0.7837-0.3883-1.6943-0.998-2.7832-1.8789-2.8098-2.2729-2.8946-2.534-1.3282-4.1308 0.6899-0.7033 1.6712-1.1622 2.4707-1.2129 0.2666-0.017 0.5118 0.012 0.7207 0.092 2.0907 0.8023 4.9529 5.3702 4.1641 6.6464-0.1183 0.1914-0.2506 0.3491-0.3906 0.4844h10.066c-0.3402-0.1116-0.5865-0.2536-0.6953-0.4297-0.7551-1.2218 2.1118-8.0117 3.3828-8.0117 1.9729 0 2.2677 2.1675 0.5527 4.0625-1.7077 1.887-1.6446 1.9375 2.4844 1.9375 2.945 0 4.1122 0.3814 3.8242 1.25-0.1718 0.518-1.4118 0.9276-2.9551 1.1914h26.834c-5.0418-0.1639-11.493-0.8527-11.131-1.4394 0.3105-0.5025 1.2238-0.6615 2.0312-0.3516 0.8103 0.3109 1.4688 0 1.4688-0.6914 0-0.5975 0.792-0.8821 2.9668-0.9004 1.3048-0.011 3.1075 0.073 5.5351 0.2442 8.693 0.6135 15.287 2.6059 8.8301 2.6679-1.7425 0.017-3.7675 0.1607-4.5 0.3203-0.3243 0.071-0.7944 0.118-1.3398 0.1504h59.943l-2.668-2.3418c-1.8646-1.6372-9.8872-6.2412-17.828-10.23-7.9408-3.9891-15.788-8.2288-17.438-9.4219-4.8899-3.536-18.475-9.131-29.273-12.057-0.7-0.1897-1.5095-1.1421-1.7988-2.1171-0.2894-0.975-1.6262-4.0235-2.9707-6.7735-1.3446-2.75-3.1008-7.0055-3.9043-9.457l-1.461-4.457 5.2031-5.5997c5.7531-6.1895 6.8926-7.6017 11.062-13.715 1.8968-2.7806 4.2495-4.7287 7-5.7988 6.5636-2.5536 34.172-30.108 46.039-45.947 4.7057-6.2811 16.071-29.411 17.701-36.025 0.6778-2.75 2.2955-6.4102 3.5957-8.1328 3.6614-4.8512 7.9177-14.276 9.3613-20.727 0.9663-4.3177 1.8904-6.1133 3.5234-6.8574 3.0074-1.3703 8.3408-13.315 12.854-28.783 2.0057-6.875 4.0776-13.876 4.6035-15.559 3.6927-11.821 3.6893-37.94-0.01-55.344-1.216-5.721-2.0353-11.909-1.8203-13.75 0.2444-2.0933-0.042-3.3477-0.7656-3.3477-0.6362 0-2.8345-4.0475-4.8848-8.9941s-4.1488-9.2539-4.6641-9.5723c-2.6356-3.5602-5.9453-10.5-5.9453-10.5-6.7404-9.2166-15.607-18.682-24.424-25.818-11.408-11.716-33.153-21.826-48.586-26.043-6.0992-3.2642-34.923-7.5863-50.438-8.1953-9.1976-0.36099-17.047-0.53433-23.869-0.48828zm7.0469 5.8164c3.8053-0.0475 7.7232 0.0283 11.822 0.2207 8.25 0.38716 16.069 0.67437 17.377 0.63867 6.952-0.18962 32.698 6.1848 42.623 10.553 2.2 0.96817 4.225 1.7878 4.5 1.8223 0.9206 0.11537 12.493 6.0304 13 6.6445 0.275 0.3334 1.695 0.89856 3.1563 1.2559 3.1934 0.7809 18.988 12.585 26.76 19.998 5.9369 6.7799 12.224 13.845 17.516 19.852 4.0954 4.7831 14.428 27.984 13.781 30.945-0.076 0.3506 0.3093 2.1506 0.8555 4 0.5461 1.8494 1.6464 8.2272 2.4453 14.172 1.7558 13.065 0.6316 28.262-3.0098 40.691-0.2417 0.825-1.167 4.5375-2.0546 8.25-0.9373 3.9198-2.1433 6.75-2.877 6.75-1.939 0-4.5723-3.3954-4.5723-5.8945 0-1.2303-0.4396-3.0573-0.9765-4.0605-0.7799-1.4573-0.5547-1.9334 1.1191-2.3711 1.9578-0.512 2.0539-1.021 1.4785-7.7754-0.3386-3.9745-0.8485-7.4579-1.1328-7.7422-0.2843-0.2842 0.7279-1.8154 2.2481-3.4024 2.3487-2.452 2.7312-3.6335 2.5507-7.8555-0.1168-2.7326-0.5092-5.4458-0.871-6.0312-0.3619-0.5855-0.8042-4.5973-0.9844-8.9141-0.2632-6.3015-0.7334-8.253-2.3809-9.9004-1.5083-1.5084-2.0508-3.3442-2.0508-6.9297 0-3.1156-0.5419-5.3278-1.5-6.123-0.825-0.6847-1.5-1.8603-1.5-2.6133s-0.9-1.9321-2-2.6191c-1.1-0.6869-2-1.9882-2-2.8926 0-0.9045-1.125-2.3823-2.5-3.2832-1.375-0.901-2.5058-2.1903-2.5058-2.8652 0-0.6748-0.7401-2.5766-1.6367-4.2266s-2.2781-4.2375-3.0684-5.75-1.8536-2.75-2.3633-2.75-0.9258-0.86222-0.9258-1.916c0-1.0686-1.8795-3.3781-4.25-5.2227-2.3375-1.8189-4.6704-3.9942-5.1836-4.834-0.5132-0.8399-2.2007-2.7987-3.75-4.3535s-2.8164-3.4739-2.8164-4.2637c0-0.7899-2.0375-2.4252-4.5273-3.6348-2.6658-1.2952-4.4688-2.8328-4.3848-3.7383 0.3134-3.392-0.2489-4.2067-4.084-5.9238-2.1976-0.9838-3.8107-1.9744-3.5839-2.2012 0.2267-0.22673-0.5623-0.48427-1.7539-0.57227-1.1916-0.0879-4.0786-0.41667-6.4161-0.73047s-4.2443-0.24154-4.2363 0.16016c0.01 0.4017 2.3706 1.8603 5.25 3.2402 4.43 2.1229 5.2808 2.9748 5.5332 5.5469 0.2247 2.2894 1.1504 3.5004 3.75 4.9004 1.8984 1.0224 3.4531 2.2639 3.4531 2.7598 0 0.4958-0.4196 0.64257-0.9316 0.32617-1.7149-1.0598-2.3955 1.7442-0.7207 2.9688 0.909 0.6647 1.6523 1.6954 1.6523 2.291 0 0.5957 0.9434 1.7462 2.0977 2.5547 2.6917 1.8854 4.9785 6.2804 4.2519 8.1738-0.31 0.808-0.066 1.4688 0.543 1.4688 2.1001 0 1.1019 2.861-1.1094 3.1797-1.8181 0.2621-1.0989 1.0319 4 4.2734 6.1957 3.9389 7.5638 5.5469 4.7168 5.5469-2.4817 0-1.7185 1.4908 2.5 4.8808 4.5291 3.6397 4.8877 4.6527 1.9239 5.4277-1.7267 0.4516-1.8958 0.87811-1.0078 2.5371 0.7923 1.4804 0.7485 2.1108-0.1739 2.4492-0.9511 0.349-0.9678 0.74617-0.07 1.7012 0.6443 0.6857 0.9617 1.7943 0.7051 2.4629-0.2566 0.6687 1.466 2.527 3.8281 4.1289 4.2673 2.8939 4.2774 2.9141 1.5449 3.2285-3.0509 0.3511-3.5831 2.2482-1.1875 4.2363 1.4091 1.1695 1.3918 1.3939-0.1797 2.2734-1.5704 0.8788-1.4519 1.2085 1.1875 3.3203 2.788 2.2309 2.8206 2.3477 0.6797 2.3477-2.6806 6e-3 -2.8157 0.72463-0.5957 3.1777 1.54 1.7016 1.54 1.8281 0 1.8281-1.9422 0-2.2078 1.5808-0.4043 2.4043 0.6875 0.3185-0.6625 0.3164-3 0-4.7225-0.6394-5.4937 0.48868-2 2.9258 1.5715 1.0962 1.7977 1.5897 0.75 1.6367-0.825 0.0372-2.1357 0.47139-2.9121 0.96289-1.1332 0.7173-0.8373 1.4076 1.5 3.5039l2.9121 2.6113-4.2851-1.6426c-4.0354-1.5474-4.4025-1.5383-6.2598 0.14258-1.672 1.5131-1.7694 2.0253-0.6406 3.3711 1.4934 1.7804 1.1279 5.0879-0.5625 5.0879-0.6056 0-0.044 1.125 1.248 2.5 1.2918 1.375 2.971 2.5 3.7325 2.5 0.7613 0 1.133 0.41046 0.8242 0.91016-0.3089 0.4997-2.8087-0.1753-5.5547-1.5-2.7459-1.3247-5.2449-2.4102-5.5527-2.4102-0.3079 0-2.4467-0.84842-4.754-1.8867-2.3074-1.0382-6.6703-2.8828-9.6953-4.0976-3.025-1.215-8.5953-3.5144-12.379-5.1113-3.7835-1.5968-7.3836-2.9185-8-2.9375-0.6164-0.0187-2.9211-0.9041-5.1211-1.9668s-4.5687-1.9458-5.2636-1.9648c-0.695-0.0186-2.045-0.48972-3-1.0449-2.1489-1.2492-23.3-7.4006-36.736-10.686-19.664-4.8074-41.764-4.4067-52.111 0.94531-7.1253 3.6854-16.389 12.33-16.389 15.293 0 4.0218 1.8345 3.7336 6.293-0.98633 2.367-2.5057 4.8217-4.5566 5.4551-4.5566s1.5113-0.5625 1.9512-1.25c1.1636-1.8189 9.0905-5.5282 14.301-6.6934 5.9671-1.3348 23.499-1.3268 30.174 0.0137 16.893 3.3926 21.303 4.4608 30.826 7.4688 16.037 5.0654 40.232 13.968 51.5 18.949 23.142 10.23 32.038 14.682 45 22.52 9.6681 5.8463 11.327 7.5947 13.145 13.846 1.4468 4.9764 1.4468 5.7321-0.014 8.7949v-4e-3c-0.879 1.8431-1.9438 3.3457-2.3652 3.3457-1.1678-0.0104-5.052-6.1527-5.7852-9.1484-0.3574-1.4603-1.6254-3.5335-2.8164-4.6055-3.0715-2.7647-20.745-13.24-22.338-13.24-0.7302 0-1.3262-0.40023-1.3262-0.89063s-1.2375-1.1965-2.75-1.5684-3.875-1.421-5.25-2.332c-1.375-0.9111-4.75-2.6236-7.5-3.8047-11.586-4.9764-22.023-9.9554-22.334-10.654-0.1834-0.4125-0.9721-0.75-1.754-0.75-0.7818 0-3.7552-1.125-6.6054-2.5-2.8503-1.375-5.5567-2.5-6.0156-2.5-0.459 0-4.8895-1.5848-9.8458-3.5215-4.9562-1.9367-11.359-4.1697-14.228-4.9629-2.8693-0.7932-10.167-2.8997-16.217-4.6816-9.7498-2.8715-12.663-3.2797-25.617-3.5859l-14.615-0.3457-8.3848 4.4102c-5.7228 3.0103-8.8589 5.3272-9.8828 7.2988-0.825 1.5887-1.5097 2.9728-1.5214 3.0762-0.012 0.1033-3.3868-0.63066-7.5-1.6309-21.323-5.185-49.268-6.9349-75.979-4.7598-2.1801 0.1776-2.4838-0.18067-2.375-2.7969 0.1383-3.3222 0.9423-6.992 1.8575-8.4727 0.3279-0.5307 1.4307-4.0163 2.4511-7.7461 3.3584-12.275 6.8977-21.613 13.371-35.281 2.968-6.2666 4.4622-8.8171 13.502-23.043 6.072-9.5556 27.959-29.957 32.139-29.957 0.4881 0 1.0374-0.40549 1.2208-0.90039 0.3979-1.0739 16.129-9.0996 17.836-9.0996 0.6539 0 2.3839-0.65165 3.8437-1.4492 1.4599-0.79757 6.7043-2.3479 11.654-3.4434 11.347-2.5112 21.762-3.7581 33.178-3.9004zm-14.893 126.3c3.1681-0.0973 7.4166 0.26066 13.957 1.0352 9.0956 1.0771 25.262 5.2742 38.258 9.9336 4.125 1.4789 9.3 3.167 11.5 3.752s4.7099 1.6736 5.5782 2.4199 1.9175 1.3574 2.332 1.3574c0.9556 0 12.874 5.0915 22.393 9.5664 4.0166 1.8884 7.5629 3.4336 7.8808 3.4336s5.1583 2.237 10.756 4.9707c14.512 7.0875 31.512 17.447 35.31 21.518 2.8205 3.0226 3.25 4.1836 3.25 8.7871 0 2.9175-0.6948 7.9875-1.5429 11.266-2.7643 10.686-8.6084 20.519-16.359 27.523-6.2674 5.6636-9.0256 7.3726-16.098 9.9805-4.8779 1.7988-14.842 2.1272-18.877 0.6211-1.8574-0.6934-4.2199-2.3021-5.25-3.5742s-1.8731-2.0104-1.8731-1.6406c0 0.3699-1.3457-0.80106-2.9902-2.6016-2.6662-2.9191-6.126-10.79-6.5273-14.85-0.3458-3.4975-1.6767-5.7667-4.002-6.8262-3.4191-1.5578-3.1148-3.1083 0.5195-2.6484 3.1742 0.4017 3.9993-1.1237 1.7989-3.3242-0.9334-0.9333-0.6383-1.2012 1.3222-1.2012 2.3735 0 2.5897 0.45254 3.7227 7.7402 1.2814 8.2424 3.8942 14.405 7.5937 17.916 3.8211 3.6262 10.426 6.4345 16.1 6.8477 4.6203 0.3364 6.4058-0.11127 12.391-3.1055 7.6981-3.8512 16.071-12.118 19.992-19.742 3.5387-6.8804 5.9338-17.362 4.9589-21.701-1.6525-7.3547-2.6799-8.8199-8.0898-11.545-2.9087-1.4652-5.4397-3.0572-5.623-3.5371-0.1835-0.4799-1.1402-0.87305-2.127-0.87305s-2.3544-0.675-3.0391-1.5-1.6919-1.5-2.2382-1.5c-0.8744 0-23.205-10.427-28.129-13.135-1.7917-0.9853-14.64-6.0296-32.633-12.811-9.6062-3.6203-14.704-5.6391-20.5-8.1191-8.1825-3.5014-23.229-8.05-30.316-9.1641-8.6712-1.3631-14.771-0.16077-18.978 3.7402-2.9049 2.6936-3.3821 2.8029-8.0801 1.8633-3.7638-0.7528-4.0444-2.6355-0.625-4.1934 1.375-0.6265 2.5-1.5476 2.5-2.0488 0-0.5013 1.9401-1.8232 4.3106-2.9375 2.2201-1.0436 4.3065-1.596 7.4746-1.6934zm-87.455 2.082c18.098 0.1228 40.316 1.6367 50.67 3.9902 5.5586 1.2636 13 3.9869 13 4.7578 0 0.1307-0.9544 2.9221-2.1211 6.2031-1.1667 3.2809-2.3176 7.5398-2.5566 9.4648s-0.6206 4.0625-0.8477 4.75c-0.227 0.6875-0.9885 1.2044-1.6933 1.1484-3.2034-0.2559-8.0153-1.7847-9.5723-3.041-0.9399-0.7585-3.284-2.2392-5.209-3.291-3.8769-2.1182-8-6.0952-8-7.7168 0-1.3196 5.9919-7.3495 8-8.0508 0.825-0.2881 1.2105-0.8382 0.8575-1.2207-0.9085-0.9842-7.8906 2.0999-9.4727 4.1836-2.3782 3.1322-1.2146 10.069 2.0859 12.434 2.262 1.6204-0.9027 1.9885-8.1816 0.95118-21.266-3.0308-43.335-3.6116-58.441-1.5391l-4.6504 0.63672 1.8359-7.8867c2.9804-12.799 2.9886-12.81 9.6231-14.373 4.4395-1.0459 13.815-1.4741 24.674-1.4004zm58.82 9.416c-0.9214 0-4.1857 7.5145-6.1914 14.25-1.429 4.7988 1.0151 3.056 3.5059-2.5 2.8566-6.372 4.0849-11.75 2.6855-11.75zm36.436 1.1699c5.8292 8.9e-4 12.132 0.66361 14.914 1.8106l3 1.2363-6.5 2.0098c-7.76 2.4008-18 6.901-18 7.9102 0 0.7397 1.9623 0.59716 17.5-1.2734l9-1.084 8 4.1523c9.8533 5.1147 22.985 10.767 27 11.621 6.9788 1.4843 8.5668 1.6357 10.238 0.97461 1.4922-0.5903 1.0721-1.3107-2.7383-4.6992-5.1037-4.5385-4.1808-4.5117 7 0.20508 3.575 1.5081 10.371 4.3648 15.102 6.3476 4.7311 1.9829 13.184 5.8573 18.785 8.6113s10.618 5.0078 11.148 5.0078c0.5306 0 0.9648 0.45 0.9648 1 0 1.3208-0.082 1.3079-6.2129-0.93555-11.138-4.0759-13.346-4.3303-17.807-2.0547-2.2364 1.141-6.6215 4.5289-9.7441 7.5293-3.9602 3.8052-6.2163 5.2857-7.461 4.8906-1.0109-0.3209-2.8863 0.29914-4.3261 1.4316-2.5928 2.0395-12.356 6.0018-20.449 8.2988-2.8313 0.8036-10.433 1.2651-20.5 1.2441-16.654-0.0348-21.894-0.98894-30.486-5.5527-1.9169-1.0181-3.8257-1.8516-4.2422-1.8516-1.0242 0-5.4528-3.6709-10.09-8.3633-4.8144-4.8718-6.3794-8.7498-6.6133-16.387-0.1302-4.2503-2.0684-2.2498-2.0684 2.1348 0 12.446 7.8521 23.285 20.764 28.66 11.966 4.9814 24.768 7.2852 36.447 6.5566 9.5144-0.5935 20.327-2.5766 22.961-4.2109 1.3582-0.8428 13.886-5.3767 14.877-5.3867 0.302-2e-3 0.377 1.4758 0.166 3.2832-0.3778 3.2357-0.5087 3.3134-8.5488 5.1172-4.4911 1.0076-10.416 2.4219-13.166 3.1426-2.75 0.7208-11.525 1.5415-19.5 1.8242-15.45 0.5477-22.142-0.33257-31.613-4.1641-6.5812-2.6623-19.064-10.733-20.367-13.168-0.5542-1.0355-1.5949-2.4805-2.3145-3.2109-5.228-5.3063-9.1423-24.955-5.2676-26.441 0.9338-0.3583 2.7919-0.0672 4.1289 0.64844 1.3371 0.7156 2.5593 1.1128 2.7168 0.88281 0.4365-0.637 4.6496-12.643 6.8829-19.613l1.9863-6.1953 5.3144-1.1895c2.2943-0.51341 5.6217-0.75053 9.1192-0.75zm-26.934 0.0957c0.7676-0.0137 1.7783 0.0704 3.0898 0.24609 2.6166 0.3503 5.2788 0.79869 5.916 0.99609 1.0239 0.3171-2.1235 11.969-5.7382 21.242-0.4824 1.2375-1.4492 2.1883-2.1485 2.1133-3.8185-0.409-5.7391-1.1693-7.2969-2.8906-1.8619-2.0574-1.7177-3.0624 2.0625-14.473 0.9111-2.75 1.8351-5.5907 2.0528-6.3125 0.1818-0.603 0.7832-0.89902 2.0625-0.92187zm-62.559 14.895c7.5954 0.0548 14.445 0.30061 18.406 0.75781 7.9089 0.9128 23.269 3.911 24.41 4.7637 0.2258 0.1688-0.2632 1.0966-1.0859 2.0625-0.8228 0.9658-2.0916 3.3309-2.8204 5.2559-0.7287 1.925-1.7022 3.9287-2.164 4.4512-0.4619 0.5225-0.8399 1.5783-0.8399 2.3477 0 0.7693-0.6468 2.8176-1.4375 4.5508-2.4863 5.4501-6.2589 14.991-7.5703 19.15-2.2456 7.1219-7.8466 18.083-12.408 24.279-4.7087 6.3963-12.379 11.715-20.201 14.012-9.8184 2.8826-21.082 0.2482-25.508-5.9668-1.1509-1.6164-1.8898-3.1433-1.6406-3.3926 0.2492-0.2492 2.4361 0.26453 4.8594 1.1406 12.328 4.4568 21.943 1.3161 33.117-10.816 10.466-11.364 13.133-15.566 17.928-28.256 1.247-3.3 2.8518-6.7104 3.5664-7.5801 0.7144-0.8696 1.0383-1.8425 0.7188-2.1621-0.6029-0.6028 2.1194-10.947 3.6836-13.994 1.3053-2.5431 1.1014-5.9993-0.3262-5.5234-1.16 0.3866-4.0817 6.9722-7.4356 16.76-2.8047 8.185-10.127 22.467-14.424 28.135-4.5411 5.9904-5.8554 7.3666-5.8887 6.1602-0.031-1.1385 3.1564-6.4367 6.4668-10.748 0.825-1.0744 1.5-2.6852 1.5-3.5801s1.1234-3.8412 2.4961-6.5469c2.6129-5.1503 3.1967-8.4199 1.5039-8.4199-0.55 0-1 0.37614-1 0.83594 0 1.1666-9.8293 13.338-12.246 15.164-1.0919 0.825-3.5099 3.057-5.3711 4.959-1.8612 1.9021-3.3828 2.9146-3.3828 2.25 0-0.6645-0.675-1.209-1.5-1.209s-1.5 0.42752-1.5 0.94922c0 0.8567-2.483 3.9862-6.3925 8.0586-2.1169 2.205-3.0314 6.776-1.6817 8.4024 0.6317 0.761 2.1441 1.1664 3.3613 0.90039 1.6072-0.3511 1.8426-0.22129 0.8614 0.47461-2.5391 1.8007-11.358 1.3083-15.531-0.86719-7.3309-3.8211-13.148-11.516-12.219-16.162 0.3307-1.6535-0.1371-7.3356-1.0391-12.627-1.2043-7.0653-1.4726-12.544-1.0117-20.625 0.8996-15.772 0.4158-14.948 9.4687-16.109 6.8866-0.88356 21.618-1.3257 34.277-1.2344zm46.518 6.8555c1.2929-0.0171 0.9917 4.423-0.5039 7.4258-0.5643 1.1329-2.6449 8.6964-4.625 16.809-1.9802 8.1122-4.246 15.987-5.0352 17.5s-1.4384 3.049-1.4414 3.4141c-0.01 1.1188-7.4099 16.149-9.5195 19.336-1.9132 2.8903-4.5275 6.0493-9.1895 11.109-1.2112 1.3147-2.8987 2.3906-3.75 2.3906-0.8512 0-1.5469 0.44097-1.5469 0.98047 0 0.5396-1.2077 1.2839-2.6836 1.6543-1.4758 0.3704-3.8383 1.277-5.25 2.0137-2.9293 1.5286-3.4723 1.6136-4.4003 0.68555-2.0839-2.0838-0.071-4.2314 7.8515-8.377 4.6845-2.4514 10.267-6.257 12.408-8.457 4.3854-4.5065 11.074-16.515 11.074-19.883 0-1.2193 0.3922-2.6435 0.8711-3.166 1.0416-1.1363 8.5726-23.471 9.5938-28.451 1.184-5.7739 4.9557-14.968 6.1465-14.984zm58.709 1.1348c-0.4115-0.0516-1.0759 0.0113-1.9218 0.19727-1.5943 0.3504-6.7185 1.1066-11.387 1.6816-8.4094 1.036-11.782 2.354-8.877 3.4688 0.8084 0.3103 5.368-0.0593 10.133-0.82227 8.106-1.298 16.899-0.92691 19.748 0.83399 0.6322 0.3907 0.2517 1.7096-0.9981 3.4648-2.3528 3.3043-2.6114 5.1909-0.6074 4.4219 0.8497-0.3261 1.6722 0.29028 2.0723 1.5508 0.5435 1.7127 1.3573 2.0424 4.4941 1.8223 2.1064-0.1479 3.6214-0.60703 3.3672-1.0195s0.2123-0.75 1.0371-0.75c1.3156 0 1.3252-0.3375 0.072-2.75-1.7753-3.4181-0.536-3.9916 3.9863-1.8457 1.8498 0.8778 4.4191 1.5482 5.711 1.4902 1.9158-0.0855 1.7043-0.3222-1.1504-1.2832-1.925-0.6481-5.525-2.1268-8-3.2871s-7.5043-2.9308-11.176-3.9336-6.4173-2.2412-6.1016-2.752c0.1675-0.2711 0.01-0.43664-0.4023-0.48828zm-52.291 1.0215c2.1539 0.0373 2.5948 1.9433 1.9883 7.3203-0.6675 5.9183 0.096 10.08 3.1406 17.1 1.6721 3.8554 11.928 16.27 13.508 16.35 0.6416 0.0325 1.3166 0.41245 1.5 0.84375 0.6239 1.4679 15.448 8.2035 20.4 9.2695 10.59 2.2794 14.116 2.8307 18.934 2.9668l5 0.14257-3.5 1.5723c-3.2478 1.4588-11.64 3.2894-12.256 2.6738-0.1489-0.1489-4.0903-0.36181-8.7578-0.47461-7.9715-0.1927-13.456-1.552-20.986-5.2012-5.9289-2.8732-14.791-14.069-17.494-22.1-4.5069-13.391-5.8593-29.783-2.5059-30.369 0.3797-0.0663 0.7216-0.0992 1.0293-0.0937zm-72.578 3.8281c-0.3013 0-1.6513 1.1912-3 2.6465-2.6392 2.8478-3.0592 5.3496-1.416 8.4199 1.4189 2.6513 1.8447 2.4658 3.5156-1.5332 1.4136-3.3831 1.9941-9.5332 0.9004-9.5332zm11.961 1.2812c-2.3624 0.0319-5.3988 6.7079-4.0605 10.195 0.7029 1.8319 3.3387 0.97096 4.6758-1.5273 1.0913-2.0391 1.3089-7.2791 0.3418-8.2461-0.2953-0.29532-0.6196-0.42643-0.9571-0.42188zm123.15 1.7188c0.2426 0 0.4414 0.45 0.4414 1s-0.4761 1-1.0586 1c-0.5824 0-0.7813-0.45-0.4414-1 0.34-0.55 0.8161-1 1.0586-1zm-23.982 1.7793c-0.4168 3e-3 -0.5762 0.24192-0.5762 0.69141 0 0.84158 0.675 1.5293 1.5 1.5293s1.5 0.45 1.5 1 0.813 1 1.8067 1c0.9936 0 5.6061 1.531 10.25 3.4024v2e-3c4.6438 1.8715 10.018 3.4146 11.943 3.4316l3.5 0.0312-4.2812-1.3379c-2.3549-0.7353-4.8949-1.8466-5.6445-2.4688-0.7497-0.6222-1.7484-1.0284-2.2188-0.9043-1.8843 0.497-8.1419-1.5602-13.106-4.3086-2.5703-1.4232-3.9791-2.0734-4.6738-2.0684zm59.482 3.2207c-0.5824 0-1.0586 0.45-1.0586 1s0.1989 1 0.4414 1c0.2426 0 0.7187-0.45 1.0586-1 0.34-0.55 0.1411-1-0.4414-1zm-1.1933 3.0293c-0.074-0.0305-0.3449 0.18496-0.8321 0.63476-0.6927 0.6395-0.9574 1.652-0.5879 2.25 0.3696 0.5979 1.2083 1.0803 1.8633 1.0703 0.7831-0.0101 0.7186-0.31282-0.1875-0.88672-0.8162-0.517-1.0624-1.4298-0.6035-2.2363 0.2997-0.52675 0.422-0.80154 0.3477-0.83203zm-102.04 2.6035c0.061-0.012 0.1162 7e-3 0.1641 0.0625 0.3831 0.4426 1.4925 3.8411 2.4648 7.5508 3.172 12.103 14.753 28.17 23.609 32.758 4.6945 2.4318 14.758 4.9941 19.584 4.9941 2.1206-2e-3 10.155-1.551 17.855-3.4414 20.371-5.0012 22.563-5.447 29.807-6.0762 3.6128-0.3138 7.5123-0.75241 8.666-0.97461 2.9989-0.5775 10.653 2.9563 11.236 5.1875 0.2711 1.0367 0.3632 5.9168 0.2051 10.846-0.1581 4.9288-0.3167 10.619-0.3516 12.645-0.083 4.8102-1.314 5.3085-13.963 5.6465l-6.4003 0.16992 4.1503 3.0059c2.2826 1.6534 4.1504 3.4534 4.1504 4 0 1.5646 6.3184 1.1598 8.7774-0.5625 1.2223-0.8562 2.2226-2.6076 2.2226-3.8926s0.675-2.5955 1.5-2.9121c0.9856-0.3782 1.5341-2.0444 1.5996-4.8574 0.055-2.3548 0.4601-5.4062 0.9004-6.7812l0.8008-2.5 0.1211 2.5c0.1898 3.8996 3.5473 10.436 6.5879 12.828 3.3088 2.6027 12.387 2.9957 16.74 0.72461 2.5131-1.3109 2.75-1.2788 2.75 0.36718 0 2.0961-3.7178 7.8098-8.957 13.766-3.8194 4.3419-5.2643 6.409-13.842 19.814-2.8153 4.4-5.5016 8.4528-5.9707 9.0058-0.4691 0.5531-2.3768 3.9281-4.2402 7.5-4.8783 9.3509-13.273 23.438-14.199 23.828-0.4354 0.1834-0.7911 0.8957-0.7911 1.5839 0 0.6883-1.2496 2.3654-2.7773 3.7266s-3.6652 3.5738-4.75 4.916-2.9267 3.1145-4.0918 3.9395c-11.54 8.1716-18.09 12.353-23.951 15.291-10.317 5.1706-13.114 5.2061-24.516 0.3183-20.618-8.839-33.228-18.415-50.914-38.668-3.5744-4.0931-6.7494-7.6664-7.0566-7.9414-1.5495-1.3872-13.839-17.081-16.445-21-1.6458-2.475-3.3648-4.7723-3.8203-5.1055-1.3762-1.0063-6.6768-22.093-6.6778-26.566-8e-4 -3.9558 0.1948-4.23 3.75-5.293 3.7621-1.1249 11.423-4.6644 14.146-6.5352 0.8008-0.55 3.9769-3.475 7.0586-6.5 4.2271-4.1493 6.8559-8.0787 10.707-16 5.7555-11.838 6.896-15.26 12.424-37.305 0.5798-2.3123 1.3068-3.9783 1.7363-4.0625zm89.684 1.7246c-0.5008 0.0708-0.4592 1.7559 0.4922 4.6387 0.727 2.2028 1.7001 4.0039 2.1621 4.0039 1.2247 0 1.0351-1.5954-0.6738-5.6856-0.8738-2.0912-1.591-3.0121-1.9805-2.957zm42.406 3.1406c0.9525-2e-3 2.0743 0.49347 4.3145 1.4844 2.4682 1.0918 7.8151 2.6814 11.881 3.5312 6.1437 1.2841 7.9332 2.1309 10.592 5.0156 3.6949 4.0091 5.2896 4.4236 4.6953 1.2207-0.2355-1.2693-0.1288-1.5962 0.2441-0.75 0.3635 0.825 1.1353 1.8088 1.7149 2.1856 1.19 0.7734-0.3656 4.3415-4.1211 9.457-1.2689 1.7284-2.4886 3.9784-2.711 5s-0.9494 3.4324-1.6152 5.3574c-1.2919 3.7354-2.1325 6.1884-2.3985 7-0.09 0.275-0.5096 2.1572-0.9335 4.1816s-1.396 3.9196-2.1602 4.2129c-6.5113 2.4986-16.912 0.72851-22.18-3.7754-4.9203-4.2066-7.4981-13.815-7.6797-28.619l-0.055-4.5 6.5-0.31836c3.575-0.175 8.189 0.18102 10.254 0.79102l3.7539 1.1094-1.5039 2.9102c-0.8274 1.5999-1.5039 4.3111-1.5039 6.0254 0 3.5639-0.7368 3.5194-9.25-0.56055-2.6125-1.2523-4.75-1.8578-4.75-1.3457 0 0.5122 1.2375 1.4761 2.75 2.1406s2.975 1.4678 3.25 1.7852c0.8683 1.0023 6.3983 2.8607 9 3.0254 3.8878 0.2461 4.6796-0.11739 2.5-1.1504-1.4497-0.6872-0.693-0.81102 2.75-0.44922 4.7332 0.4973 5.2635 0.14118 4.8203-3.2324-0.1229-0.9352 0.8989-1.1 3.8809-0.62305 5.1317 0.8206 5.4308-0.98049 0.5488-3.3086-1.925-0.918-3.5-2.0624-3.5-2.543s-0.4796-0.57744-1.0664-0.21484c-0.6302 0.3895-0.9372-0.0428-0.75-1.0566 0.4126-2.2344-3.808-5.3784-8.7617-6.5274-5.2499-1.2171-12.157-1.1945-12.922 0.043-0.6513 1.0538-6.5 1.4229-6.5 0.41016 0-0.778 3.7249-3.9119 7.6192-6.4102 1.5575-0.9994 2.3405-1.4998 3.2929-1.502zm29.629 1.1992c0.5099 8e-3 1.4982 0.47083 3.4101 1.3945 2.1734 1.0501 4.4234 1.9082 5 1.9082s1.0488 0.87381 1.0488 1.9414c0 2.6033-1.4905 3.3774-3 1.5586-0.6746-0.8129-1.5749-1.2628-2-1-0.4252 0.2627-1.0068-0.41792-1.2929-1.5117-0.286-1.0939-1.0379-1.9883-1.6719-1.9883-0.6339 0-0.8319 0.5193-0.4395 1.1543 0.4421 0.7153 0.2739 0.88349-0.4414 0.44141-0.635-0.39243-1.1543-1.5468-1.1543-2.5645 0-0.89515 0.031-1.3416 0.5411-1.334zm-92.672 1.4219c-0.725-4e-3 -1.4855 0.0542-2.1074 0.17383-1.244 0.2392-0.4618 0.44408 1.7382 0.45508 2.2 0.0111 3.2178-0.18525 2.2618-0.43555-0.4781-0.12505-1.1676-0.18972-1.8926-0.19336zm72.631 6.8887c1.1 3e-3 3.35 0.89939 5 1.9922 3.7572 2.4883 1.2037 2.3999-3.5-0.12109-2.5603-1.3723-2.9631-1.8711-1.5-1.8711zm-23.492 1.5527c0.8031 0.0399 0.9922 0.71708 0.9922 2.5332 0 3.2322-0.6284 3.503-3.3496 1.4414-2.1103-1.5988-1.6032-3.0522 1.334-3.8203 0.4198-0.10978 0.7558-0.1676 1.0234-0.1543zm48.381 11.822c0.3586 0.0159 0.6113 0.41547 0.6113 1.0586 0 0.8574-0.45 1.5586-1 1.5586s-1-0.4238-1-0.9414c0-0.5175 0.45-1.2187 1-1.5586 0.1375-0.085 0.2692-0.12248 0.3887-0.11719zm-213.33 4.6172c0.5825 0 0.7814 0.45 0.4414 1-0.3399 0.55-0.816 1-1.0586 1-0.2425 0-0.4414-0.45-0.4414-1s0.4762-1 1.0586-1zm191.88 1.4375c-0.2177 9e-3 -0.4466 0.0305-0.6894 0.0625-1.5132 0.1996-3.3145 0.39364-4.002 0.43164-0.6875 0.0379-1.25 0.74336-1.25 1.5684 0 1.1347 1.2261 1.5 5.0352 1.5 4.6662 0 4.96-0.14134 4.0019-1.9316-0.6388-1.1936-1.5713-1.6956-3.0957-1.6309zm16.75 9.6719c0.1898-0.0278 0.2649 0.23555 0.2774 0.78125 0.017 0.7643-0.7563 1.9861-1.7188 2.7168-0.9625 0.7306-2.425 1.3293-3.25 1.3301-1.042 1e-3 -0.8893-0.34783 0.5-1.1445 1.1-0.6309 2.5488-1.8558 3.2188-2.7207 0.4783-0.6175 0.7829-0.93514 0.9726-0.96289zm-76.478 2c-0.7796 0-1.2129 0.29702-1.2129 0.89062 0 0.55 1.4625 0.96869 3.25 0.92969 2.7236-0.0589 2.9261-0.20949 1.25-0.92969-1.3813-0.5936-2.5074-0.89062-3.2871-0.89062zm-3.2968 0.0137c-0.3474-0.0143-0.7426 0.0489-1.1036 0.19336-0.7977 0.3192-0.5614 0.55747 0.6036 0.60547 1.0541 0.0434 1.6447-0.19309 1.3125-0.52539-0.1662-0.1662-0.4652-0.25913-0.8125-0.27344zm-10.102 0.80076c-0.9795 0.0151-2.7035 0.50723-4.8926 1.5215-2.7668 1.2819-5.3058 2.6066-5.6426 2.9434-1.4343 1.4342 2.4895 0.43933 5.4942-1.3926 3.7934-2.3129 4.6405-2.4885 3.5937-0.7461-0.5165 0.8597-0.2264 0.82432 0.9297-0.11328 1.8047-1.4637 1.777-2.2324 0.5176-2.2129zm-1.9707 4.082c-0.056-4e-3 -0.1318 0.0349-0.2285 0.12109-1.3488 1.203-1.7077 6.2344-0.6309 8.834 1.1546 2.7874 5.0156 3.9239 5.0156 1.4766 0-0.7909-0.4722-1.4375-1.0488-1.4375-1.4426 0-3.8638-6.0402-3.1855-7.9473 0.2277-0.64058 0.2462-1.0354 0.078-1.0469zm98.434 7.0664c0.068-5e-3 0.1168 6e-3 0.1426 0.0332 0.6971 0.7337-8.063 17.588-12.74 24.514-2.5559 3.7844-6.4693 8.8485-8.6972 11.254-2.2279 2.4053-5.7239 6.4561-7.7676 9s-5.3855 6.1993-7.4278 8.125c-13.571 12.797-17.787 17.246-17.787 18.764 0 0.6816-0.7163 1.2383-1.5918 1.2383-3.4003 0 5.1528-12.589 15.816-23.279 16.705-16.746 23.95-26.083 29.992-38.654 2.0829-4.3336 4.4786-7.6567 6.5547-9.0918 1.5748-1.0886 3.0291-1.8697 3.5059-1.9023zm-138.03 2.9375c-3.3565 0.0174-13.87 15.273-14.801 21.477-0.7931 5.2885 0.1437 7.4245 2.1152 4.8242 0.7547-0.9954 1.3868-2.5771 1.4043-3.5137 0.052-2.7893 2.297-6.8966 3.5996-6.5859 0.6663 0.159 4.6484 4.4516 8.8496 9.5391s8.1213 9.25 8.7109 9.25 5.4134 2.4294 10.721 5.3984c11.211 6.2713 21.184 10.669 26.141 11.527 5.754 0.9968 19.901 0.4085 21.469-0.8926 0.7946-0.6595 2.3658-0.9064 3.4922-0.5489 3.6466 1.1574 2.3337-2.2656-2.1016-5.4785-2.2825-1.6535-4.5505-3.0058-5.041-3.0058-0.4904 0-1.8583-0.9-3.039-2-1.1808-1.1-2.4987-2-2.9278-2-1.6795 0 0.4028 2.7017 4.6387 6.0195 5.129 4.0174 5.5108 4.9805 1.9766 4.9805-2.4144 0-3.3643-0.5299-7.1524-3.9824-1.4461-1.319-4.0652-2.5418-17.258-8.0704-16.244-6.8074-29.047-14.337-29.047-17.082 0-1.4408 10.522 2.3458 16.414 5.9063 7.6166 4.6028 24.498 12.221 27.086 12.221 1.5447 9e-4 1.2202-0.4741-1.4238-2.086-1.8829-1.1479-4.3579-2.2508-5.5-2.4512-1.142-0.2003-7.9262-3.2564-15.076-6.791-14.841-7.3367-17.447-8.3735-23-9.1445-2.2-0.3054-7.2814-1.1095-11.291-1.7871l-7.289-1.2324 3.2753-4.5c1.8018-2.475 4.0708-5.3713 5.0411-6.4375 2.234-2.4548 2.2379-3.5647 0.014-3.5527zm91.484 0.24804c0.5319-0.0152 1.4775 0.53288 2.7149 1.6953 1.3427 1.2615 4.8284 3.117 7.746 4.123l5.3047 1.8281-4.3769-0.20117c-5.6179-0.2592-9.6601-1.9698-11.125-4.707-0.9466-1.7687-0.9475-2.7187-0.2637-2.7383zm-177.86 0.74219c1.6059 0 1.9172 1.2097 2.5137 9.75 0.3746 5.3625 1.1471 11.484 1.7148 13.602 0.5678 2.1181 0.8501 4.0309 0.629 4.252-1.1888 1.1887-8.8405-18.576-8.17-21.104 0.146-0.55 0.5395-2.2375 0.8731-3.75 0.3924-1.7795 1.2531-2.75 2.4394-2.75zm146.24 1.0449c-2.4711 0.0418-2.4119 0.15104 1.0703 1.9902 2.0268 1.0706 3.9655 2.4 4.3086 2.9551 0.7823 1.2659 2.5058 1.3224 2.5058 0.082 0-1.7238-5.2515-5.0714-7.8847-5.0274zm64.734 3.0391c0.082 0.0245 0.1311 0.12593 0.1348 0.31054 0.023 1.3155-5.3565 9.6035-6.2344 9.6035-0.4125 1e-3 -0.75 0.60871-0.75 1.3496 0 0.7408-0.7875 2.2784-1.75 3.416-0.9625 1.1378-2.5006 2.9685-3.4179 4.0684-0.9174 1.0998-1.4055 2.2625-1.084 2.584s-0.1654 0.584-1.082 0.584c-0.9167 0-1.6661 0.3557-1.6661 0.789 0 1.1538-5.9109 7.8785-5.9589 6.7793-0.022-0.512 2.5464-4.2906 5.7089-8.3984 3.1625-4.1077 6.4592-9.5382 7.3262-12.068 1.1193-3.2666 2.424-5.0086 4.5-6.0058 1.6081-0.77243 3.2541-1.8974 3.6582-2.5 0.2526-0.37663 0.4789-0.55253 0.6152-0.51172zm-143.47 1.0195c-0.322-0.0613-0.7574 0.62959-1.0351 1.6914-0.3174 1.2135-0.8865 2.2051-1.2637 2.2051-0.9294 0-3.7818 8.5822-4.459 13.414-0.6654 4.7481 1.0974 3.6007 2.3672-1.541 0.4581-1.8548 1.7961-6.0135 2.9727-9.2402 1.1766-3.2268 1.873-6.1308 1.5488-6.4551-0.041-0.0405-0.085-0.0655-0.1309-0.0742zm74.836 6.959c-0.4089 0.0307-1.4106 0.71168-2.9004 2.1113-1.273 1.1959-2.3145 3.2209-2.3145 4.5s0.4986 2.3262 1.1075 2.3262c0.6088 0 0.8518-0.6626 0.541-1.4727-0.3109-0.8101 0.5815-2.8351 1.9824-4.5 1.6558-1.9678 2.1097-3.0043 1.584-2.9648zm-53.393 7.9375c0.5828 0 1.3439 0.4612 1.6914 1.0234 1.6427 2.6579 13.001 9.8672 23.914 15.18 6.6391 3.2319 13.839 6.7791 15.998 7.8809s5.8715 2.2697 8.25 2.5957c4.7349 0.649 5.5836 1.749 2.0742 2.6894-3.9383 1.0554-9.0866 0.1357-10.801-1.9297-0.6573-0.792-1.7022-1.4433-2.3223-1.4433-0.6202 0-3.377-1.1616-6.127-2.5762-2.75-1.4147-5.8762-2.7543-6.9472-2.9766-2.5599-0.5315-12.959-5.731-13.387-6.6933-0.1834-0.4125-0.9737-0.75-1.7579-0.75-0.7841 0-2.8398-1.35-4.5664-3-1.7265-1.65-2.824-3-2.4394-3 0.3845 0-0.5025-1.575-1.9707-3.5-1.4683-1.925-2.1922-3.5-1.6094-3.5zm-103.44 10.326c-0.039 0.01-0.077 0.032-0.1094 0.065-0.2621 0.2622-0.1789 0.9564 0.1836 1.543 0.986 1.5954 1.5629 1.2855 0.8867-0.4766-0.2849-0.7426-0.6888-1.203-0.9609-1.1309zm184.07 5.1622c-0.4886 0-1.1158 0.315-1.8203 1.0195-0.8996 0.8997-1.6348 2.2253-1.6348 2.9472 0 0.7224-1.8548 5.0191-4.1211 9.5469-3.0698 6.1334-3.8013 8.429-2.8711 9.0039 0.6867 0.4244 0.9424 1.266 0.5684 1.8711-0.4184 0.677-0.1188 0.8856 0.7793 0.541 1.5419-0.5917 7.5679-12.362 8.2637-16.141 0.2252-1.2231 0.8693-3.4351 1.4316-4.914 0.8871-2.3332 0.4792-3.8726-0.5957-3.875zm-86.85 1.6992c-0.077-0.01-0.1614 0.034-0.25 0.123-1.2523 1.2523 2.9372 12.232 5.8418 15.311 3.2358 3.4294 22.508 13.43 31.166 16.172 5.5847 1.7687 14.637 1.8044 14.637 0.059 0-0.5211 1.4625-1.5825 3.25-2.3593l3.25-1.4141-3-0.1074c-5.6238-0.2025-8.0327-0.7833-13.518-3.2598-3.0158-1.3616-6.6075-2.7946-7.9825-3.1836-1.375-0.3891-7.9-3.3399-14.5-6.5586-12.017-5.8605-18.5-10.657-18.5-13.686 0-0.6667-0.1636-1.0805-0.3945-1.0957zm-119.3 1.6484c0.4564-0.018 0.9491-1e-4 1.4785 0.045 1.8011 0.1664 3.2654 4.423 1.8418 5.3535-2.0566 1.3441-5.5395 0.7905-6.5176-1.0371-1.3474-2.5175 0-4.2341 3.1973-4.3613zm-5.7207 3.2285c0.2843 0.042 0.3467 0.2746 0.2597 0.6856-0.087 0.4125 0.2021 1.5835 0.6446 2.6015 0.5311 1.2221 0.3297 2.1509-0.5918 2.7344-1.9597 1.2409-4.2855 1.1247-5.6953-0.2851-1.8089-1.8088-1.4846-2.6028 1.75-4.2754 2.0643-1.0675 3.1589-1.5305 3.6328-1.461zm9.0644 3.4414c0.4538 0.021 0.8854 0.428 1.6153 1.2364 0.873 0.967 1.7333 3.0477 1.9121 4.623 0.2528 2.2282-0.1828 3.0555-1.9629 3.7305-1.7798 0.6748-2.4078 0.4838-2.8301-0.8633-0.2987-0.9525-0.9271-2.702-1.3965-3.8867-0.6249-1.5772-0.3798-2.5833 0.918-3.7578 0.815-0.7376 1.2904-1.1029 1.7441-1.0821zm-19.496 0.7871c0.5771 0.053 1.1198 0.5339 2.0684 1.4825 2.3722 2.3722 1.8829 3.5292-2.3926 5.6621-3.8513 1.9247-3.8699 1.9241-6.6035 0.01-2.9011-2.032-2.8715-4.4433 0.055-4.4433 1.2526 0 3.3217-0.7313 4.5976-1.625 1.0872-0.7615 1.6984-1.1351 2.2754-1.0821zm12.043 2.9668c1.0758 0.07 2.1126 1.29 3.0352 3.6387 1.4459 3.6809 1.4326 4.0977-0.1622 5.541-2.4311 2.2001-2.883 2.0129-4.7929-1.9922-1.2643-2.6511-1.4238-3.9847-0.627-5.25 0.8494-1.3488 1.7101-1.9917 2.5469-1.9375zm-25.562 2.836c1.571-0.01 2.8043 0.6621 4.3242 2.0781l2.334 2.1738-2.2559 1.8262c-3.0059 2.434-4.8885 2.2449-8.8359-0.8887l-3.3027-2.6211 3.1679-1.332c1.9207-0.8075 3.3465-1.2283 4.5684-1.2363zm17.16 0.748c1.0572 0.016 2.9397 1.6683 4.1601 4.0606l1.9902 3.9023-3.4043 2.5977c-1.8723 1.4281-3.5503 2.5957-3.7285 2.5957-0.3638 0-5.8086-8.8684-5.8086-9.461 0-0.2089 1.35-0.6766 3-1.039s3-1.0738 3-1.5801c0-0.7531 0.3105-1.0833 0.7911-1.0762zm18.209 4.1563c0.55 0 1 1.0988 1 2.4414 0 1.3425-0.45 2.7187-1 3.0586-0.5834 0.3606-1-0.6567-1-2.4414 0-1.6824 0.45-3.0586 1-3.0586zm-62.691 1.3457v3.4765c0.1952-1.2265 0.485-1.8222 0.8828-1.8222 0.6585 0 0.437-0.559-0.4941-1.25-0.1424-0.1057-0.2692-0.2428-0.3887-0.4043zm34.617 0.6543c1.874 0 6.2331 7.2213 5.209 8.6289-0.3489 0.4796-1.6251 1.7088-2.8359 2.7324-2.1958 1.8563-2.2106 1.8484-5.2911-3l-3.0878-4.8613 2.1503-1.75c1.183-0.9625 2.9185-1.75 3.8555-1.75zm22.274 2c2.3043 0 2.3362 2.8724 0.051 4.6074-2.372 1.8004-2.9316 1.7174-3.5176-0.5234-0.5926-2.266 0.9503-4.084 3.4668-4.084zm-7.2989 4.1308c1.588-0.032 2.61 1.027 2.6446 3.0528 0.025 1.4609-0.4251 3.2547-1 3.9863-3.1436 4.0007-4.1896 3.9661-5.8243-0.1953-1.5475-3.9397-1.5307-4.0525 0.8008-5.5801 1.2699-0.832 2.4262-1.2444 3.3789-1.2637zm-34.783 5.4414c0.7997-0.052 1.3536 0.3605 2.2559 1.1114 2.7971 2.3275 4.6269 4.5054 4.6269 5.5078 0 0.88-14.663 0.9856-16.828 0.1211-0.7979-0.3187 0.9485-1.902 4.3731-3.9649 3.1093-1.873 4.5441-2.7083 5.5722-2.7754zm26.301 0.088c0.9483 0.033 1.4901 0.7822 2.6328 2.6563 2.3496 3.8535 2.3899 4.6094 0.3926 7.4609-0.8562 1.2224-1.1937 2.2283-0.75 2.2383s0.1316 0.4512-0.6934 0.9844c-2.3007 1.4869-2.4924 1.3349-4.8222-3.8203-2.8723-6.3553-2.7569-7.523 0.8769-8.8946 1.0789-0.4072 1.7943-0.6448 2.3633-0.625zm-14.256 17.617c1.5763-0.1369 2.5374 0.9715 3.2364 3.2949 0.4939 1.6419-0.2956 2.7328-3.8008 5.25-2.4335 1.7476-4.8016 3.1635-5.2617 3.1465s-1.6186-1.1073-2.5742-2.4219c-1.7019-2.3411-1.6719-2.4454 1.4726-5.0918 3.1596-2.6585 5.3515-4.0408 6.9277-4.1777zm9.3731 4.1211c0.1016-0.024 0.1945-6e-4 0.2715 0.076 0.3079 0.3079-2e-4 1.1143-0.6836 1.793-0.9876 0.9792-1.1013 0.8646-0.5586-0.5606 0.2816-0.7396 0.6659-1.2361 0.9707-1.3086zm-4.5254 3.9199c0.4665 0.013 0.7792 0.2906 1.0859 0.7617 0.5089 0.7825 0.8074 2.7161 0.6641 4.3008-0.1654 1.8298-1.3632 3.728-3.2812 5.2012-3.2456 2.4927-4.2217 2.2635-6.3399-1.4941-1.2317-2.185-1.1374-2.5909 1-4.2969 4.0749-3.2525 5.8448-4.5006 6.8711-4.4727zm-17.088 0.3653 2.0059 2.4082c2.6318 3.1608 2.6119 3.2666-1.1778 6.1113-5.0618 3.7996-5.3701 3.8744-7.2714 1.7734-1.7375-1.9198-1.67-2.0967 2.3281-6.1347zm5.6113 8.3164c3.3097 0 4.6857 7.4782 1.5586 8.4707-1.0492 0.333-2.1602 1.2642-2.4687 2.0683-0.3086 0.804-1.1655 1.461-1.9043 1.461-1.343 0-5.7557-5.2163-5.6758-6.709 0.059-1.0982 6.7863-5.291 8.4902-5.291zm78.545 2.4863c-0.052 0.01-0.1096 0.034-0.1719 0.072-0.4987 0.3083-0.9063 1.2075-0.9063 2 0 2.0698 0.6785 1.7744 1.2891-0.5606 0.2519-0.9631 0.1522-1.579-0.2109-1.5117zm-66.898 0.6719c0.1767-0.024 0.3163 0.01 0.4043 0.094 0.352 0.352 0.2383 2.3428-0.2539 4.4239l-0.8965 3.7832-1.7168-2.4512c-1.6381-2.3388-1.6254-2.5425 0.2559-4.4238 0.8135-0.8135 1.6771-1.3549 2.207-1.4258zm66.139 4.2441c-0.088 1e-3 -0.1949 0.074-0.3184 0.1973-0.5563 0.5564-1.2576 5.2606-1.5586 10.455-0.3009 5.1946-0.7175 9.9639-0.9257 10.598-0.2083 0.6338-0.072 1.4606 0.3027 1.8379 0.3746 0.3773 0.9608-1.9413 1.3027-5.1523 1.5361-14.425 1.8135-17.943 1.1973-17.936zm-73.199 0.7988c0.7047 0.081 1.3667 0.7848 2.4511 2.0489 2.6111 3.0434 2.9456 6.5221 0.8516 8.8359-2.6279 2.9039-5.6192 2.3583-8.1035-1.4785l-2.1816-3.3691 3.0507-3.1192c2.0472-2.0939 3.0256-3.0214 3.9317-2.918zm-13.08 2.875c0.5132 0.015 1.1953 0.5027 2.002 1.4747 1.0565 1.2731 1.0227 1.8132-0.1875 3.0234-1.7737 1.7737-2.8536 0.9257-2.8536-2.2402 0-1.5167 0.3793-2.2776 1.0391-2.2579zm162.66 6.086c0.2956-0.01 0.5636-0.01 0.8105 0 1.6459 0.077 2.3141 0.6249 3.377 1.9375 1.8383 2.2703 1.8329 2.3254-0.3633 3.4648-1.2273 0.6368-3.5363 1.4016-5.1289 1.6993-1.5927 0.2978-3.8558 0.8469-5.0293 1.2207-1.7269 0.5501-2.4441 0.057-3.7637-2.5879-1.9982-4.0055-1.3989-4.4984 6.5918-5.4258 1.4914-0.1731 2.6191-0.2863 3.5059-0.3125zm-158.28 0.3086c0.3746 0.039 0.7482 0.2549 1.2011 0.6308 3.2779 2.7204 3.5921 4.8175 1.1797 7.8731-3.1238 3.9565-4.1954 3.745-5.4844-1.084-0.9654-3.6171-0.8633-4.3437 0.8594-6.0664 0.9932-0.9932 1.6198-1.4188 2.2442-1.3535zm12.156 3.1269c0.07-0.01 0.137-0.01 0.2012 0 0.8554 0.1409 1.2226 1.8895 1.2226 5.3946 0 6.2373-1.1362 6.9068-3.289 1.9375-1.5908-3.6718-1.5921-4.0535-0.027-5.8809 0.7807-0.9117 1.4048-1.4029 1.8925-1.4551zm131.29 0.4824c0.8396 0 1.1367 0.4404 1.1367 1.336 0 0.7791 0.4086 1.5666 0.9082 1.75 0.4994 0.1832 1.0618 1.1817 1.25 2.2148 0.2522 1.3932-0.5981 2.2101-3.2949 3.1582-3.4451 1.2114-3.7488 1.1394-5.75-1.3476-2.8245-3.5104-2.699-4.049 1.3535-5.7422 2.1737-0.9081 3.5569-1.364 4.3965-1.3692zm22.918 2.92c0.9937 0 8.2187 9.1069 8.2187 10.359 0 0.3247-1.3284 1.2762-2.9511 2.1153-3.9325 2.0336-4.447 1.9572-7.1934-1.0684-1.2952-1.4269-3.6644-3.9067-5.2637-5.5097-1.5992-1.603-2.7242-3.0538-2.5-3.2247 0.653-0.4976 8.5377-2.6718 9.6895-2.6718zm-33.619 1.5644 1.9122 2.4688c2.2305 2.8805 2.1036 5.4624-0.2696 5.4804-0.9147 0.01-1.9949 0.3445-2.4004 0.75-1.7436 1.7436-6.0978 0.7068-7.2011-1.7148-1.0456-2.2947-0.8257-2.5974 3.4218-4.7188zm-126.9 0.4375c0.4214-7e-4 1.5288 1.5981 2.4609 3.5528 1.2642 2.6511 1.4237 3.9847 0.627 5.25-1.7028 2.704-3.7058 2.4807-6.8086-0.7579l-2.8907-3.0175 2.9219-2.5137c1.6076-1.3825 3.2681-2.513 3.6895-2.5137zm168.4 1.0821c0.9191-0.1067 4.3339 3.01 4.3339 4.0703 0 0.4647-0.4245 0.8457-0.9433 0.8457-1.145 0-4.2029-4.1877-3.541-4.8496 0.037-0.037 0.089-0.059 0.1504-0.066zm-29.477 3.9316c1.5628-0.014 1.5747 0.3215 0.1562 4.4844-1.9709 5.7844-2.3995 5.7956-3.7656 0.096-0.7353-3.068 0.4336-4.5511 3.6094-4.5801zm-81.389 1.0488c-0.1401-0.027-0.3831 0.2892-0.8008 0.9356-0.5331 0.825-0.9763 1.8637-0.9843 2.3086-0.01 0.445 0.4343 0.5313 0.9843 0.1914s0.9924-1.3786 0.9844-2.3086c-0.01-0.7287-0.043-1.0998-0.1836-1.127zm57.262 0.5879c0.8551-0.028 1.4411 0.4219 1.9219 1.3203 1.4072 2.6294 1.4178 2.6087-2.3867 4.4141-4.252 2.0176-5.5029 2.0262-6.2617 0.049-0.3733-0.9727 0.2884-2.201 1.75-3.25 2.3334-1.6746 3.8772-2.4977 4.9765-2.5332zm59.356 0.8613c0.3457-0.042 0.8966 0.1207 1.6602 0.5293 3.2824 1.7567 5.9218 4.2876 5.9218 5.6797 0 2.1438-2.4782 1.431-5.3125-1.5273-2.4919-2.601-3.3067-4.5563-2.2695-4.6817zm-180.93 0.9981c0.3337 0.04 0.8347 0.3756 1.5117 0.9883 1.1 0.9955 2 2.6395 2 3.6543 0 2.6139-2.6453 2.2966-3.3691-0.4043-0.7998-2.9843-0.8768-4.327-0.1426-4.2383zm137.17 0.1543c2.3598 0.1445 3.4318 2.311 4.0234 7.3066l0.5938 5.0274h-4.6153c-3.7001 0-4.8978-0.4465-6.0351-2.25-3.5997-5.708-3.0008-7.4914 3.2148-9.584 1.1032-0.3714 2.0318-0.5482 2.8184-0.5zm-124.84 1.4277c0.8883-0.016 1.1913 1.323 0.9883 4.0781-0.3412 4.6291-2.0984 6.0193-3.7383 2.9551-1.44-2.6907-1.35-3.7027 0.5019-5.5547 0.9708-0.9707 1.7151-1.4691 2.2481-1.4785zm195.95 0.9336c0.952 0.015 3.2773 1.3093 5.1679 2.877l3.4375 2.8496-3.1386 1.623c-3.9982 2.0675-4.5483 2.0409-6.6993-0.3359-2.1847-2.4141-1.3694-7.0537 1.2325-7.0137zm-32.369 0.066c1.5694 0.018 3.1959 0.9197 4.9121 2.711 3.1723 3.3112 3.3065 4.3264 0.8594 6.541-2.3541 2.1305-2.1647 2.1667-7.0215-1.3516-4.6762-3.3874-4.9027-4.0045-2.3222-6.3398 1.1651-1.0545 2.3516-1.5744 3.5722-1.5606zm-64.465 1.9063c2.8093 0 0.5401 2.7063-3.6895 4.4004-2.6104 1.0455-7.3806 3.183-10.6 4.75-6.2094 3.0227-9.4804 3.7421-6.1465 1.3515 1.1-0.7887 2.5428-1.898 3.2071-2.4668s1.8756-1.0351 2.6914-1.0351c0.8157 0 1.7776-0.4756 2.1367-1.0567 0.717-1.1602 10.697-5.9433 12.4-5.9433zm13.334 0.9238c1.8454 0.075 2.8414 1.4899 3.1543 4.3398 0.2322 2.1156-0.2239 2.646-2.6973 3.1407-4.3917 0.8783-5.3536 0.7519-6.7168-0.8907-1.7626-2.1237-0.5977-4.259 3.2012-5.8691 1.2049-0.5107 2.2197-0.7546 3.0586-0.7207zm68.42 1.0762c2.0702 0 2.3412 0.3448 1.7656 2.25-1.0464 3.4637-1.8461 3.8642-4.293 2.1504-1.7899-1.2537-2.0159-1.8721-1.0878-2.9903 0.6435-0.7754 2.2705-1.4101 3.6152-1.4101zm-186.51 1.0117c0.5013 0.014 0.8251 0.2496 0.834 0.7383 0.01 0.4125 0.2661 1.6883 0.5742 2.8359 0.6103 2.2727-3.0335 5.4648-5.3379 4.6758-1.8659-0.6388-1.5092-4.7184 0.5782-6.6074 1.187-1.0743 2.5161-1.6663 3.3515-1.6426zm211.15 3.6699c0.9746 0.056 1.8704 0.5171 2.875 1.3692l2.2988 1.9492-2.3613 2c-3.0648 2.5964-5.6503 2.5355-7.5508-0.1778-1.3824-1.9737-1.3642-2.2862 0.1934-3.3339 1.6976-1.1419 2.9775-1.7372 4.1211-1.8047 0.1429-0.01 0.2846-0.01 0.4238 0zm-204.71 2.6621c0.1195 0.02 0.2511 0.071 0.3886 0.1563 0.55 0.3399 1 0.8161 1 1.0586 0 0.2426-0.45 0.4414-1 0.4414s-1-0.4762-1-1.0586c0-0.4369 0.2528-0.658 0.6114-0.5977zm333.13 5.0703c-0.7116 0.01-1.2881 0.019-1.8496 0.027h1.8496z"/>
 </g>
</svg>
