<svg xmlns="http://www.w3.org/2000/svg" width="32" height="32" viewBox="0 0 32 32" id="helmet"><path style="-inkscape-stroke:none" fill-rule="evenodd" d="M 75.074219,199.39648 C 67.859307,199.39648 62,205.3252 62,212.59961 c -2e-6,3.33725 1.250457,6.52924 3.464844,8.95312 C 66.393348,222.5691 67.76045,223 69,223 h 13.878906 c 1.306677,0 2.776575,-0.46402 3.746094,-1.54688 1.72179,-1.92307 2.842331,-4.31466 3.226562,-6.875 0.213558,-1.42302 -0.262114,-2.96214 -0.896484,-4.07031 l -3.046875,-5.32226 c -0.0134,-0.0234 -0.02773,-0.0462 -0.04297,-0.0684 -2.363171,-3.45363 -6.325575,-5.72071 -10.791015,-5.72071 z m 0,2 c 2.959303,0 5.641958,1.17464 7.632812,3.08399 l -6.27539,2.78711 C 75.986549,207.09523 75.503461,207 75,207 c -2.19729,0 -4,1.80271 -4,4 0,2.19729 1.80271,4 4,4 0.900618,0 1.735173,-0.30376 2.40625,-0.8125 l 10.335938,0.79492 c -0.411115,1.9093 -1.305781,3.68291 -2.607422,5.13672 C 84.818619,220.47224 83.501307,221 82.878906,221 H 69 c -0.55496,0 -1.77764,-0.48934 -2.058594,-0.79688 C 65.063904,218.148 63.999998,215.43731 64,212.59961 c 0,-6.20491 4.951683,-11.20313 11.074219,-11.20313 z" color="#000" transform="translate(-60 -196)"></path></svg>