<svg xmlns="http://www.w3.org/2000/svg" viewBox="0 0 24 24" id="helmet-baseball"><g fill="#5f7fc1" data-name="Helm kasti"><path d="M11 19c-2.91 0-4.61-.45-5.51-1.47s-.79-2.47-.63-3.82c0-.23.06-.47.08-.71H3a1 1 0 0 1-1-1A9.9 9.9 0 0 1 12 2c5.07 0 6.73 3.29 7 5.44l2.58 1.73A1 1 0 0 1 21 11h-5.55a10.61 10.61 0 0 1 .55 3 4.94 4.94 0 0 1-1 3.78A5.38 5.38 0 0 1 11 19Zm-6.93-8H6a1 1 0 0 1 1 1 16.12 16.12 0 0 1-.15 2c-.14 1.15-.21 1.87.13 2.25s1.29.8 4 .8a3.69 3.69 0 0 0 2.55-.63c.47-.5.47-1.31.47-2.42a10.35 10.35 0 0 0-.9-3.58 1 1 0 0 1 .06-1A1 1 0 0 1 14 9h3.7l-.25-.17A1 1 0 0 1 17 8c0-.4-.19-4-5-4a7.88 7.88 0 0 0-7.93 7Z"></path><path d="M10.5 16a2.5 2.5 0 1 1 2.5-2.5 2.5 2.5 0 0 1-2.5 2.5Zm0-3a.5.5 0 1 0 .5.5.5.5 0 0 0-.5-.5Z"></path></g></svg>