<svg xmlns="http://www.w3.org/2000/svg" viewBox="0 0 32 32" id="spacesuit"><path d="M29 30H3a1 1 0 0 1-1-1v-.587a.5.5 0 0 1 .406-.491l26.405-5.078a1 1 0 0 1 1.189.982V29a1 1 0 0 1-1 1zM7.502 5.254A11.457 11.457 0 0 0 4 13.5V19h7.54l2.683-3.129A3.953 3.953 0 0 1 13 13c0-.859.271-1.672.764-2.345L7.502 5.254zm1.92 6.132C8.916 12.597 9 13.439 9 15a1 1 0 0 1-2 0c0-1.642-.095-2.78.578-4.386a1 1 0 1 1 1.844.772z"></path><path d="M27 13.5v7.656L4 25.579V21h8a.998.998 0 0 0 .759-.349l3.247-3.788c.318.086.649.137.994.137 2.206 0 4-1.794 4-4s-1.794-4-4-4c-.593 0-1.146.146-1.649.383L9.073 3.968A11.433 11.433 0 0 1 15.5 2C21.841 2 27 7.159 27 13.5z"></path><path d="M19 13a2 2 0 1 1-3.999.001A2 2 0 0 1 19 13z"></path></svg>