<svg xmlns="http://www.w3.org/2000/svg" enable-background="new 0 0 1080 1080" viewBox="0 0 1080 1080" id="shopping-trolley"><polygon fill="#fff" points="405.77 629.55 363.12 374.57 775.73 374.57 733.09 629.55"></polygon><path d="M763.17,385.21l-39.09,233.7h-309.3l-39.09-233.7H763.17 M788.3,363.92H350.55l46.21,276.27H742.1L788.3,363.92
			L788.3,363.92z"></path><circle cx="495.01" cy="738.45" r="36.97"></circle><circle cx="626.34" cy="738.45" r="36.97"></circle><polyline fill="none" stroke="#000" stroke-linecap="round" stroke-linejoin="round" stroke-miterlimit="10" stroke-width="24.75" points="366.11 378.52 350.55 311.39 220.68 311.39"></polyline><circle cx="773.71" cy="390.19" r="85.61" fill="#3fa9f5"></circle><path fill="#fff" d="M803.04,415.61v16.83h-63.5c0.69-6.36,2.75-12.39,6.19-18.08c3.44-5.69,10.23-13.25,20.37-22.66
				c8.17-7.61,13.17-12.76,15.02-15.47c2.49-3.74,3.74-7.44,3.74-11.09c0-4.04-1.09-7.15-3.26-9.32c-2.17-2.17-5.17-3.26-8.99-3.26
				c-3.78,0-6.79,1.14-9.03,3.42c-2.24,2.28-3.53,6.06-3.87,11.35l-18.05-1.81c1.07-9.97,4.45-17.13,10.12-21.47
				c5.67-4.34,12.76-6.51,21.27-6.51c9.33,0,16.65,2.51,21.98,7.54c5.33,5.03,7.99,11.28,7.99,18.76c0,4.25-0.76,8.31-2.29,12.15
				c-1.53,3.85-3.94,7.88-7.25,12.09c-2.19,2.79-6.15,6.81-11.86,12.06c-5.72,5.24-9.34,8.73-10.86,10.44
				c-1.53,1.72-2.76,3.4-3.71,5.03H803.04z"></path><path fill="none" stroke="#000" stroke-linecap="round" stroke-linejoin="round" stroke-miterlimit="10" stroke-width="17.605" d="M744.53,719.97h-328.8c-24.71,0-44.75-20.03-44.75-44.75v0c0-24.71,20.03-44.75,44.75-44.75h39.04"></path></svg>